<?xml version="1.0" encoding="UTF-8"?>
<!-- Generator: visioncortex VTracer 0.6.4 -->
<svg version="1.1" xmlns="http://www.w3.org/2000/svg" width="512" height="512">
<path d="M0 0 C19.64310634 16.50723368 34.95998326 37.87100875 38 64 C40.00706443 92.38316441 35.11130766 117.2402984 16.84375 139.64453125 C0.42107852 158.46699451 -21.83614019 172.43272251 -47.21777344 174.22753906 C-75.8329536 175.49950262 -100.20094475 169.80835389 -122.1875 150.625 C-140.72962913 133.23989973 -153.23970686 111.00534464 -154.3828125 85.2890625 C-155.09445376 56.78869783 -148.21659255 32.57486407 -128.3359375 11.37109375 C-94.61920639 -22.8530798 -39.12763276 -29.61944513 0 0 Z " fill="#FCD453" transform="translate(314,322)"/>
<path d="M0 0 C19.64310634 16.50723368 34.95998326 37.87100875 38 64 C40.00706443 92.38316441 35.11130766 117.2402984 16.84375 139.64453125 C0.42107852 158.46699451 -21.83614019 172.43272251 -47.21777344 174.22753906 C-75.8329536 175.49950262 -100.20094475 169.80835389 -122.1875 150.625 C-140.72962913 133.23989973 -153.23970686 111.00534464 -154.3828125 85.2890625 C-155.09445376 56.78869783 -148.21659255 32.57486407 -128.3359375 11.37109375 C-94.61920639 -22.8530798 -39.12763276 -29.61944513 0 0 Z " fill="#FCD453" transform="translate(458,178)"/>
<path d="M0 0 C19.64310634 16.50723368 34.95998326 37.87100875 38 64 C40.00706443 92.38316441 35.11130766 117.2402984 16.84375 139.64453125 C0.42107852 158.46699451 -21.83614019 172.43272251 -47.21777344 174.22753906 C-75.8329536 175.49950262 -100.20094475 169.80835389 -122.1875 150.625 C-140.72962913 133.23989973 -153.23970686 111.00534464 -154.3828125 85.2890625 C-155.09445376 56.78869783 -148.21659255 32.57486407 -128.3359375 11.37109375 C-94.61920639 -22.8530798 -39.12763276 -29.61944513 0 0 Z " fill="#FCD453" transform="translate(170,178)"/>
<path d="M0 0 C19.64310634 16.50723368 34.95998326 37.87100875 38 64 C40.00706443 92.38316441 35.11130766 117.2402984 16.84375 139.64453125 C0.42107852 158.46699451 -21.83614019 172.43272251 -47.21777344 174.22753906 C-75.8329536 175.49950262 -100.20094475 169.80835389 -122.1875 150.625 C-140.72962913 133.23989973 -153.23970686 111.00534464 -154.3828125 85.2890625 C-155.09445376 56.78869783 -148.21659255 32.57486407 -128.3359375 11.37109375 C-94.61920639 -22.8530798 -39.12763276 -29.61944513 0 0 Z " fill="#FCD453" transform="translate(314,34)"/>
<path d="M0 0 C0.66 -0.0103125 1.32 -0.020625 2 -0.03125 C5.08316838 0.7877166 6.08973704 1.9218035 8 4.5 C8.5898021 7.70822092 8.50491989 10.88034864 8.45410156 14.13378906 C8.45468567 15.10973022 8.45526978 16.08567139 8.45587158 17.09118652 C8.45308531 20.3163614 8.42196686 23.54061161 8.390625 26.765625 C8.38316456 29.00192764 8.3774707 31.23823682 8.37347412 33.47454834 C8.35820238 39.36016899 8.31890682 45.24539474 8.2746582 51.13085938 C8.22654451 58.19261514 8.20817887 65.25450296 8.18484497 72.31637573 C8.14605725 83.04452514 8.06941318 93.77180806 8 104.5 C29.78 104.17 51.56 103.84 74 103.5 C68.39 97.89 62.78 92.28 57 86.5 C55.39579482 83.29158965 55.52537255 79.9806013 56 76.5 C57.5 74 57.5 74 60 72.5 C63.85515456 71.79322166 66.35093819 71.40447111 69.67504883 73.61279297 C75.99528197 79.37216487 82.04936277 85.39808475 88.08422852 91.45385742 C89.95409753 93.32914563 91.82932899 95.19895465 93.70507812 97.06835938 C94.89615461 98.26009565 96.0869214 99.45214155 97.27734375 100.64453125 C97.83767807 101.20284134 98.39801239 101.76115143 98.97532654 102.33638 C102.35964175 105.74142315 103.83637805 107.31374083 104.5 112.125 C104.27925967 121.46967376 91.33966708 130.31243175 85.04614258 136.58422852 C83.17085437 138.45409753 81.30104535 140.32932899 79.43164062 142.20507812 C78.23990435 143.39615461 77.04785845 144.5869214 75.85546875 145.77734375 C75.29715866 146.33767807 74.73884857 146.89801239 74.16362 147.47532654 C69.20602789 152.40273969 69.20602789 152.40273969 64.125 152.8125 C61.17031347 152.75340627 60.10941607 152.56564964 57.5 151 C55.80768325 148.17947208 55.24300742 145.92920215 55.4375 142.62890625 C56.59195932 138.25959841 59.87884153 135.59815875 63 132.5 C63.92901123 131.57098877 64.85802246 130.64197754 65.81518555 129.68481445 C68.54345703 126.95654297 71.27172852 124.22827148 74 121.5 C73.0316925 121.49635437 72.06338501 121.49270874 71.06573486 121.48895264 C61.94277051 121.45202013 52.82014425 121.39426681 43.69743729 121.31609726 C39.00726161 121.27657867 34.3172749 121.24441179 29.62695312 121.22900391 C25.10095379 121.21386604 20.57547384 121.17947202 16.04970551 121.13169098 C14.32258365 121.11684745 12.59538765 121.10895728 10.86820221 121.10811615 C8.44965668 121.10575358 6.03255486 121.07873374 3.61425781 121.04589844 C2.54179306 121.05344398 2.54179306 121.05344398 1.44766235 121.06114197 C-1.61205476 120.99681877 -3.76147358 120.63345206 -6.44354248 119.13287354 C-8.95198368 114.88964276 -8.55574517 110.66736493 -8.51757812 105.828125 C-8.5245874 104.74156616 -8.53159668 103.65500732 -8.53881836 102.53552246 C-8.55643868 98.94008915 -8.54476058 95.34544146 -8.53125 91.75 C-8.53394373 89.25423023 -8.53782516 86.75846148 -8.54284668 84.26269531 C-8.54874721 79.03051725 -8.54054146 73.79854392 -8.52148438 68.56640625 C-8.49971569 62.52002988 -8.50676724 56.47419304 -8.52879 50.42782974 C-8.54913847 44.60787034 -8.54697294 38.7881158 -8.53526306 32.96813965 C-8.53259155 30.49295985 -8.53588036 28.01776631 -8.54518127 25.54260254 C-8.55532109 22.08532041 -8.53988019 18.62907943 -8.51757812 15.171875 C-8.52567505 14.14525757 -8.53377197 13.11864014 -8.54211426 12.06091309 C-8.45918287 5.1340691 -8.45918287 5.1340691 -6.09265137 1.86621094 C-3.83643847 0.39321702 -2.6728796 -0.04176374 0 0 Z " fill="#CC79ED" transform="translate(48,343.5)"/>
<path d="M0 0 C2.5 1.5 2.5 1.5 4 4 C4.74101214 8.04188439 5.00003078 10.39139785 2.8125 13.91015625 C0.97626141 16.05979133 -0.99292247 18.00771256 -3 20 C-3.92901123 20.92901123 -4.85802246 21.85802246 -5.81518555 22.81518555 C-8.54345703 25.54345703 -11.27172852 28.27172852 -14 31 C-13.0316925 31.00364563 -12.06338501 31.00729126 -11.06573486 31.01104736 C-1.94277051 31.04797987 7.17985575 31.10573319 16.30256271 31.18390274 C20.99273839 31.22342133 25.6827251 31.25558821 30.37304688 31.27099609 C34.89904621 31.28613396 39.42452616 31.32052798 43.95029449 31.36830902 C45.67741635 31.38315255 47.40461235 31.39104272 49.13179779 31.39188385 C51.55034332 31.39424642 53.96744514 31.42126626 56.38574219 31.45410156 C57.10071869 31.4490712 57.81569519 31.44404083 58.55233765 31.43885803 C61.61205476 31.50318123 63.76147358 31.86654794 66.44354248 33.36712646 C68.95198368 37.61035724 68.55574517 41.83263507 68.51757812 46.671875 C68.5245874 47.75843384 68.53159668 48.84499268 68.53881836 49.96447754 C68.55643868 53.55991085 68.54476058 57.15455854 68.53125 60.75 C68.53394373 63.24576977 68.53782516 65.74153852 68.54284668 68.23730469 C68.54874721 73.46948275 68.54054146 78.70145608 68.52148438 83.93359375 C68.49971569 89.97997012 68.50676724 96.02580696 68.52879 102.07217026 C68.54913847 107.89212966 68.54697294 113.7118842 68.53526306 119.53186035 C68.53259155 122.00704015 68.53588036 124.48223369 68.54518127 126.95739746 C68.55532109 130.41467959 68.53988019 133.87092057 68.51757812 137.328125 C68.52567505 138.35474243 68.53377197 139.38135986 68.54211426 140.43908691 C68.45918287 147.3659309 68.45918287 147.3659309 66.09265137 150.63378906 C63.83643847 152.10678298 62.6728796 152.54176374 60 152.5 C59.01 152.51546875 59.01 152.51546875 58 152.53125 C54.91683162 151.7122834 53.91026296 150.5781965 52 148 C51.4101979 144.79177908 51.49508011 141.61965136 51.54589844 138.36621094 C51.54531433 137.39026978 51.54473022 136.41432861 51.54412842 135.40881348 C51.54691469 132.1836386 51.57803314 128.95938839 51.609375 125.734375 C51.61683544 123.49807236 51.6225293 121.26176318 51.62652588 119.02545166 C51.64179762 113.13983101 51.68109318 107.25460526 51.7253418 101.36914062 C51.77345549 94.30738486 51.79182113 87.24549704 51.81515503 80.18362427 C51.85394275 69.45547486 51.93058682 58.72819194 52 48 C30.22 48.33 8.44 48.66 -14 49 C-8.39 54.61 -2.78 60.22 3 66 C4.60420518 69.20841035 4.47462745 72.5193987 4 76 C2.5 78.5 2.5 78.5 0 80 C-3.85515456 80.70677834 -6.35093819 81.09552889 -9.67504883 78.88720703 C-15.99528197 73.12783513 -22.04936277 67.10191525 -28.08422852 61.04614258 C-29.95409753 59.17085437 -31.82932899 57.30104535 -33.70507812 55.43164062 C-34.89615461 54.23990435 -36.0869214 53.04785845 -37.27734375 51.85546875 C-37.83767807 51.29715866 -38.39801239 50.73884857 -38.97532654 50.16362 C-42.35964175 46.75857685 -43.83637805 45.18625917 -44.5 40.375 C-44.27925967 31.03032624 -31.33966708 22.18756825 -25.04614258 15.91577148 C-23.17085437 14.04590247 -21.30104535 12.17067101 -19.43164062 10.29492188 C-18.23990435 9.10384539 -17.04785845 7.9130786 -15.85546875 6.72265625 C-15.29715866 6.16232193 -14.73884857 5.60198761 -14.16362 5.02467346 C-9.57570617 0.4646882 -6.54547604 -0.89256491 0 0 Z " fill="#CC79EC" transform="translate(404,16)"/>
<path d="M0 0 C7.47927469 4.85162617 13.80094616 12.64880753 20.08422852 18.95385742 C21.95409753 20.82914563 23.82932899 22.69895465 25.70507812 24.56835938 C26.89615461 25.76009565 28.0869214 26.95214155 29.27734375 28.14453125 C29.83767807 28.70284134 30.39801239 29.26115143 30.97532654 29.83638 C35.90273969 34.79397211 35.90273969 34.79397211 36.3125 39.875 C36.25340627 42.82968653 36.06564964 43.89058393 34.5 46.5 C31.67947208 48.19231675 29.42920215 48.75699258 26.12890625 48.5625 C21.75959841 47.40804068 19.09815875 44.12115847 16 41 C15.07098877 40.07098877 14.14197754 39.14197754 13.18481445 38.18481445 C10.45654297 35.45654297 7.72827148 32.72827148 5 30 C4.99635437 30.86808289 4.99270874 31.73616577 4.98895264 32.6305542 C4.95108495 40.8117135 4.8942464 48.99247366 4.81609726 57.17335129 C4.77658887 61.37925527 4.7444171 65.58494885 4.72900391 69.79101562 C4.71385913 73.85020582 4.67945331 77.90881768 4.63169098 81.96775055 C4.6168545 83.51623762 4.60895768 85.06480726 4.60811615 86.61336517 C4.60575137 88.78290958 4.57871576 90.95084929 4.54589844 93.12011719 C4.53257477 94.97210724 4.53257477 94.97210724 4.51898193 96.86151123 C4 100 4 100 2.63287354 102.39764404 C-1.5983507 104.97274963 -5.81309587 104.55589928 -10.671875 104.51757812 C-11.75843384 104.5245874 -12.84499268 104.53159668 -13.96447754 104.53881836 C-17.55991085 104.55643868 -21.15455854 104.54476058 -24.75 104.53125 C-27.24576977 104.53394373 -29.74153852 104.53782516 -32.23730469 104.54284668 C-37.46948275 104.54874721 -42.70145608 104.54054146 -47.93359375 104.52148438 C-53.97997012 104.49971569 -60.02580696 104.50676724 -66.07217026 104.52879 C-71.89212966 104.54913847 -77.7118842 104.54697294 -83.53186035 104.53526306 C-86.00704015 104.53259155 -88.48223369 104.53588036 -90.95739746 104.54518127 C-94.41467959 104.55532109 -97.87092057 104.53988019 -101.328125 104.51757812 C-102.35474243 104.52567505 -103.38135986 104.53377197 -104.43908691 104.54211426 C-111.3659309 104.45918287 -111.3659309 104.45918287 -114.63378906 102.09265137 C-116.10678298 99.83643847 -116.54176374 98.6728796 -116.5 96 C-116.51546875 95.01 -116.51546875 95.01 -116.53125 94 C-115.7122834 90.91683162 -114.5781965 89.91026296 -112 88 C-108.79177908 87.4101979 -105.61965136 87.49508011 -102.36621094 87.54589844 C-101.39026978 87.54531433 -100.41432861 87.54473022 -99.40881348 87.54412842 C-96.1836386 87.54691469 -92.95938839 87.57803314 -89.734375 87.609375 C-87.49807236 87.61683544 -85.26176318 87.6225293 -83.02545166 87.62652588 C-77.13983101 87.64179762 -71.25460526 87.68109318 -65.36914062 87.7253418 C-58.30738486 87.77345549 -51.24549704 87.79182113 -44.18362427 87.81515503 C-33.45547486 87.85394275 -22.72819194 87.93058682 -12 88 C-12.495 59.29 -12.495 59.29 -13 30 C-18.61 35.61 -24.22 41.22 -30 47 C-33.20841035 48.60420518 -36.5193987 48.47462745 -40 48 C-42.5 46.5 -42.5 46.5 -44 44 C-44.70677834 40.14484544 -45.09552889 37.64906181 -42.88720703 34.32495117 C-37.12783513 28.00471803 -31.10191525 21.95063723 -25.04614258 15.91577148 C-23.17085437 14.04590247 -21.30104535 12.17067101 -19.43164062 10.29492188 C-18.23990435 9.10384539 -17.04785845 7.9130786 -15.85546875 6.72265625 C-15.01800362 5.88215477 -15.01800362 5.88215477 -14.16362 5.02467346 C-9.70439254 0.59259121 -6.42289366 -1.32382454 0 0 Z " fill="#CC79ED" transform="translate(460,368)"/>
<path d="M0 0 C1.08655884 -0.00700928 2.17311768 -0.01401855 3.29260254 -0.02124023 C6.88803585 -0.03886056 10.48268354 -0.02718245 14.078125 -0.01367188 C16.57389477 -0.01636561 19.06966352 -0.02024703 21.56542969 -0.02526855 C26.79760775 -0.03116908 32.02958108 -0.02296334 37.26171875 -0.00390625 C43.30809512 0.01786244 49.35393196 0.01081088 55.40029526 -0.01121187 C61.22025466 -0.03156034 67.0400092 -0.02939482 72.85998535 -0.01768494 C75.33516515 -0.01501343 77.81035869 -0.01830224 80.28552246 -0.02760315 C83.74280459 -0.03774296 87.19904557 -0.02230206 90.65625 0 C91.68286743 -0.00809692 92.70948486 -0.01619385 93.76721191 -0.02453613 C100.6940559 0.05839525 100.6940559 0.05839525 103.96191406 2.42492676 C105.43490798 4.68113965 105.86988874 5.84469852 105.828125 8.51757812 C105.84359375 9.50757813 105.84359375 9.50757813 105.859375 10.51757812 C105.0404084 13.60074651 103.9063215 14.60731516 101.328125 16.51757812 C98.11990408 17.10738023 94.94777636 17.02249801 91.69433594 16.97167969 C90.71839478 16.97226379 89.74245361 16.9728479 88.73693848 16.97344971 C85.5117636 16.97066343 82.28751339 16.93954499 79.0625 16.90820312 C76.82619736 16.90074269 74.58988818 16.89504883 72.35357666 16.89105225 C66.46795601 16.8757805 60.58273026 16.83648494 54.69726562 16.79223633 C47.63550986 16.74412264 40.57362204 16.725757 33.51174927 16.7024231 C22.78359986 16.66363537 12.05631694 16.5869913 1.328125 16.51757812 C1.658125 35.65757813 1.988125 54.79757813 2.328125 74.51757812 C7.938125 68.90757813 13.548125 63.29757813 19.328125 57.51757812 C22.53653535 55.91337295 25.8475237 56.04295068 29.328125 56.51757812 C31.828125 58.01757812 31.828125 58.01757812 33.328125 60.51757812 C34.03490334 64.37273268 34.42365389 66.86851632 32.21533203 70.19262695 C26.45596013 76.51286009 20.43004025 82.5669409 14.37426758 88.60180664 C12.49897937 90.47167566 10.62917035 92.34690711 8.75976562 94.22265625 C7.56802935 95.41373274 6.37598345 96.60449953 5.18359375 97.79492188 C4.62528366 98.3552562 4.06697357 98.91559052 3.491745 99.49290466 C0.08670185 102.87721987 -1.48561583 104.35395617 -6.296875 105.01757812 C-15.64154876 104.7968378 -24.48430675 91.85724521 -30.75610352 85.5637207 C-32.62597253 83.68843249 -34.50120399 81.81862348 -36.37695312 79.94921875 C-37.56802961 78.75748247 -38.7587964 77.56543657 -39.94921875 76.37304688 C-40.78972023 75.53558174 -40.78972023 75.53558174 -41.64720154 74.68119812 C-46.57461469 69.72360602 -46.57461469 69.72360602 -46.984375 64.64257812 C-46.92528127 61.6878916 -46.73752464 60.62699419 -45.171875 58.01757812 C-42.35134708 56.32526137 -40.10107715 55.76058555 -36.80078125 55.95507812 C-32.43147341 57.10953744 -29.77003375 60.39641966 -26.671875 63.51757812 C-25.74286377 64.44658936 -24.81385254 65.37560059 -23.85668945 66.33276367 C-21.12841797 69.06103516 -18.40014648 71.78930664 -15.671875 74.51757812 C-15.66822937 73.64949524 -15.66458374 72.78141235 -15.66082764 71.88702393 C-15.62295995 63.70586463 -15.5661214 55.52510447 -15.48797226 47.34422684 C-15.44846387 43.13832285 -15.4162921 38.93262928 -15.40087891 34.7265625 C-15.38573413 30.66737231 -15.35132831 26.60876045 -15.30356598 22.54982758 C-15.2887295 21.0013405 -15.28083268 19.45277087 -15.27999115 17.90421295 C-15.27762637 15.73466855 -15.25059076 13.56672883 -15.21777344 11.39746094 C-15.20889099 10.1628009 -15.20000854 8.92814087 -15.19085693 7.65606689 C-14.671875 4.51757812 -14.671875 4.51757812 -13.30474854 2.11993408 C-9.0735243 -0.45517151 -4.85877913 -0.03832115 0 0 Z " fill="#CC79ED" transform="translate(62.671875,39.482421875)"/>
<path d="M0 0 C4.14236384 1.51030209 6.35056871 5.01929366 8.91040039 8.45239258 C9.50425537 9.21245605 10.09811035 9.97251953 10.70996094 10.75561523 C11.92777975 12.31758962 13.13654745 13.88666284 14.33618164 15.46264648 C15.99814597 17.63453168 17.69372858 19.77283486 19.41040039 21.90161133 C20.41087369 23.14732511 21.41089916 24.39339873 22.41040039 25.63989258 C22.8722876 26.21570068 23.3341748 26.79150879 23.81005859 27.38476562 C25.74772091 29.84808418 27.09753763 31.7638043 28.09790039 34.76489258 C28.75790039 34.76489258 29.41790039 34.76489258 30.09790039 34.76489258 C30.3724707 34.17571045 30.64704102 33.58652832 30.92993164 32.97949219 C32.05305959 30.84991577 33.2513083 29.17877651 34.78540039 27.33129883 C35.57938232 26.36667725 35.57938232 26.36667725 36.3894043 25.38256836 C36.95320801 24.70436035 37.51701172 24.02615234 38.09790039 23.32739258 C43.2492033 17.07603446 48.22738465 10.73106481 53.07446289 4.24145508 C55.09790039 1.76489258 55.09790039 1.76489258 58.09790039 -0.23510742 C61.87640911 -0.46364626 65.12712079 0.02945348 68.16040039 2.32739258 C69.53756623 5.90802377 69.0736671 9.13970435 68.09790039 12.76489258 C66.50313791 15.11217457 65.08182746 16.93029923 63.16040039 18.95239258 C62.16288864 20.06193232 61.16817149 21.17398981 60.17602539 22.28833008 C59.66749023 22.85390625 59.15895508 23.41948242 58.63500977 24.00219727 C56.08940773 26.92139147 53.75005451 29.99239211 51.41040039 33.07739258 C50.97671143 33.64675537 50.54302246 34.21611816 50.09619141 34.80273438 C49.0939296 36.12130633 48.09545413 37.44275519 47.09790039 38.76489258 C48.19489258 38.80227539 49.29188477 38.8396582 50.42211914 38.87817383 C51.87657896 38.94385911 53.33100455 39.01030556 54.78540039 39.07739258 C55.50663086 39.09995117 56.22786133 39.12250977 56.97094727 39.14575195 C61.40800763 39.368618 64.53141808 39.85306094 68.09790039 42.76489258 C69.26970953 46.71974841 69.50271369 48.833822 67.84790039 52.63989258 C66.09790039 54.76489258 66.09790039 54.76489258 63.09790039 55.76489258 C61.10587009 55.84781211 59.11116326 55.87227435 57.11743164 55.86254883 C55.95405273 55.85932617 54.79067383 55.85610352 53.59204102 55.8527832 C52.37709961 55.8444043 51.1621582 55.83602539 49.91040039 55.82739258 C48.68385742 55.82288086 47.45731445 55.81836914 46.19360352 55.8137207 C43.16168174 55.80192334 40.12978499 55.78398772 37.09790039 55.76489258 C37.09790039 61.04489258 37.09790039 66.32489258 37.09790039 71.76489258 C38.91676758 71.73008789 40.73563477 71.6952832 42.60961914 71.65942383 C45.00153699 71.63128362 47.39346482 71.60398371 49.78540039 71.57739258 C50.98358398 71.55225586 52.18176758 71.52711914 53.41625977 71.5012207 C54.57319336 71.49155273 55.73012695 71.48188477 56.92211914 71.47192383 C57.98519287 71.45621338 59.0482666 71.44050293 60.14355469 71.42431641 C63.55289785 71.81734456 65.39814234 72.66534994 68.09790039 74.76489258 C69.26970953 78.71974841 69.50271369 80.833822 67.84790039 84.63989258 C66.09790039 86.76489258 66.09790039 86.76489258 63.09790039 87.76489258 C61.10587009 87.84781211 59.11116326 87.87227435 57.11743164 87.86254883 C55.95405273 87.85932617 54.79067383 87.85610352 53.59204102 87.8527832 C52.37709961 87.8444043 51.1621582 87.83602539 49.91040039 87.82739258 C48.68385742 87.82288086 47.45731445 87.81836914 46.19360352 87.8137207 C43.16165371 87.80192323 40.12980133 87.78546178 37.09790039 87.76489258 C37.15010742 89.62694336 37.15010742 89.62694336 37.20336914 91.52661133 C37.23151623 93.16852484 37.2588154 94.81045303 37.28540039 96.45239258 C37.31053711 97.26901367 37.33567383 98.08563477 37.36157227 98.92700195 C37.41888534 103.64577826 37.35889788 107.04118599 34.09790039 110.76489258 C31.46911878 111.88765762 28.93693848 111.97095179 26.09790039 111.76489258 C22.83078213 110.08944732 22.27008939 109.28145957 21.09790039 105.76489258 C21.0176804 104.35664365 20.99024062 102.94492027 21.00024414 101.53442383 C21.0034668 100.73198242 21.00668945 99.92954102 21.01000977 99.1027832 C21.01838867 98.2694043 21.02676758 97.43602539 21.03540039 96.57739258 C21.03991211 95.73241211 21.04442383 94.88743164 21.04907227 94.0168457 C21.06084636 91.93283103 21.07878149 89.84885281 21.09790039 87.76489258 C20.3009375 87.78060303 19.50397461 87.79631348 18.68286133 87.8125 C15.07127989 87.87486846 11.45981178 87.91388997 7.84790039 87.95239258 C6.59364258 87.9775293 5.33938477 88.00266602 4.04711914 88.02856445 C2.8418457 88.03823242 1.63657227 88.04790039 0.39477539 88.05786133 C-0.71542969 88.07357178 -1.82563477 88.08928223 -2.96948242 88.10546875 C-6.23180908 87.72660214 -7.56350523 87.02278631 -9.90209961 84.76489258 C-10.68725586 82.89770508 -10.68725586 82.89770508 -10.96459961 80.88989258 C-11.07932617 80.2324707 -11.19405273 79.57504883 -11.31225586 78.89770508 C-10.8069065 76.2698884 -9.85436484 74.57186513 -7.87890625 72.75512695 C-3.13895352 70.38076011 2.75224847 71.27894205 7.91040039 71.45239258 C9.17561523 71.47495117 10.44083008 71.49750977 11.74438477 71.52075195 C14.86273018 71.57958866 17.98046628 71.66926576 21.09790039 71.76489258 C21.09790039 66.48489258 21.09790039 61.20489258 21.09790039 55.76489258 C19.19524414 55.79969727 17.29258789 55.83450195 15.33227539 55.87036133 C12.83749254 55.89849798 10.34270016 55.92579827 7.84790039 55.95239258 C5.96651367 55.99009766 5.96651367 55.99009766 4.04711914 56.02856445 C2.8418457 56.03823242 1.63657227 56.04790039 0.39477539 56.05786133 C-0.71542969 56.07357178 -1.82563477 56.08928223 -2.96948242 56.10546875 C-6.23180908 55.72660214 -7.56350523 55.02278631 -9.90209961 52.76489258 C-10.68725586 50.89770508 -10.68725586 50.89770508 -10.96459961 48.88989258 C-11.07932617 48.2324707 -11.19405273 47.57504883 -11.31225586 46.89770508 C-10.61474598 43.27065371 -8.79939786 41.94529524 -5.90209961 39.76489258 C-2.96101912 39.04617655 -0.10805903 38.97516386 2.91040039 38.95239258 C4.09279297 38.9146875 4.09279297 38.9146875 5.29907227 38.8762207 C7.23148412 38.81766277 9.16474366 38.7883377 11.09790039 38.76489258 C10.74598633 38.33257324 10.39407227 37.90025391 10.03149414 37.45483398 C9.5377832 36.84816895 9.04407227 36.24150391 8.53540039 35.61645508 C7.98916016 34.94549805 7.44291992 34.27454102 6.88012695 33.58325195 C5.6871153 32.11503048 4.49637563 30.64496011 3.30786133 29.1730957 C0.74049883 25.99579182 -1.83424779 22.84310501 -4.51147461 19.75708008 C-10.26632158 13.05709401 -10.26632158 13.05709401 -11.21459961 8.45239258 C-10.90209961 4.76489258 -10.90209961 4.76489258 -8.96459961 1.70239258 C-5.62472549 -0.41058901 -3.86919829 -0.60971597 0 0 Z " fill="#F89A35" transform="translate(226.902099609375,344.235107421875)"/>
<path d="M0 0 C1.051875 0.598125 2.10375 1.19625 3.1875 1.8125 C8.33323672 5.81473967 12.83864593 10.77021473 15 17 C15.1925338 20.05720338 14.80410928 21.93433335 14 25 C11.21725672 27.70089789 9.46537898 27.95690935 5.625 28.3125 C0.75347643 26.5486725 -0.68391809 23.76809591 -3.32421875 19.4453125 C-5.34709409 16.49351771 -7.40976617 14.62473472 -10.75 13.3125 C-17.48112865 12.37762102 -21.64696158 12.53974709 -27.3046875 16.43359375 C-30.0652054 18.98421052 -30.87676314 21.43207116 -32 25 C-32.495 26.485 -32.495 26.485 -33 28 C-31.75863281 27.96519531 -30.51726562 27.93039063 -29.23828125 27.89453125 C-27.59636774 27.86638416 -25.95443954 27.83908499 -24.3125 27.8125 C-23.49587891 27.78736328 -22.67925781 27.76222656 -21.83789062 27.73632812 C-17.10318073 27.67882153 -13.76413608 27.77041579 -10 31 C-8.82819086 34.95485583 -8.5951867 37.06892942 -10.25 40.875 C-12 43 -12 43 -15 44 C-16.40824893 44.08021999 -17.81997231 44.10765977 -19.23046875 44.09765625 C-20.03291016 44.09443359 -20.83535156 44.09121094 -21.66210938 44.08789062 C-22.49548828 44.07951172 -23.32886719 44.07113281 -24.1875 44.0625 C-25.03248047 44.05798828 -25.87746094 44.05347656 -26.74804688 44.04882812 C-28.83206155 44.03705403 -30.91603977 44.0191189 -33 44 C-33 49.28 -33 54.56 -33 60 C-31.75863281 59.96519531 -30.51726562 59.93039062 -29.23828125 59.89453125 C-27.59636774 59.86638416 -25.95443954 59.83908499 -24.3125 59.8125 C-23.08756836 59.77479492 -23.08756836 59.77479492 -21.83789062 59.73632812 C-17.10318073 59.67882153 -13.76413608 59.77041579 -10 63 C-8.82819086 66.95485583 -8.5951867 69.06892942 -10.25 72.875 C-12 75 -12 75 -15 76 C-16.40824893 76.08021999 -17.81997231 76.10765977 -19.23046875 76.09765625 C-20.03291016 76.09443359 -20.83535156 76.09121094 -21.66210938 76.08789062 C-22.49548828 76.07951172 -23.32886719 76.07113281 -24.1875 76.0625 C-25.03248047 76.05798828 -25.87746094 76.05347656 -26.74804688 76.04882812 C-28.83206155 76.03705403 -30.91603977 76.0191189 -33 76 C-32.55844255 77.27611425 -32.10734805 78.54893072 -31.65234375 79.8203125 C-31.40218506 80.52945801 -31.15202637 81.23860352 -30.89428711 81.96923828 C-28.93170819 86.42589442 -25.38732082 89.15910938 -21 91 C-15.34212233 91.79210287 -10.85150433 91.1591191 -6 88 C-3.30041887 85.7632042 -2.01648531 84.03297062 -0.4375 80.875 C1 78 1 78 4 76 C7.77850872 75.77146117 11.02922039 76.2645609 14.0625 78.5625 C15.4872072 82.26673871 15.17023279 85.30726541 14 89 C9.28584362 98.18342152 2.56705867 103.45149097 -7 107 C-14.85226184 109.40994215 -23.2606909 108.69953403 -30.6796875 105.3359375 C-38.80699368 100.6565794 -44.89818061 93.86234112 -48 85 C-48.49648669 82.00675815 -48.80096388 79.02672174 -49 76 C-50.12148437 76.05220703 -50.12148437 76.05220703 -51.265625 76.10546875 C-52.25046875 76.13253906 -53.2353125 76.15960938 -54.25 76.1875 C-55.22453125 76.22230469 -56.1990625 76.25710938 -57.203125 76.29296875 C-60.44649146 75.95323064 -61.72406775 75.30718074 -64 73 C-65.12341753 70.32839015 -65.29632805 67.87382298 -65 65 C-63.25 62 -63.25 62 -60 60 C-56.22815649 59.59266206 -52.81482415 59.77019132 -49 60 C-49 54.72 -49 49.44 -49 44 C-50.7325 44.061875 -52.465 44.12375 -54.25 44.1875 C-57.51267895 44.30402425 -59.4196722 44.32130585 -62.29296875 42.73046875 C-64.73411962 40.25580093 -64.97613607 38.39011489 -65.20703125 35.0078125 C-65 33 -65 33 -63.25 30 C-58.55964002 27.11362463 -54.3697305 27.57681634 -49 28 C-48.97873047 27.07380859 -48.97873047 27.07380859 -48.95703125 26.12890625 C-48.3936949 16.1258797 -44.31621518 9.5544471 -37.12109375 2.7265625 C-26.64165277 -5.80366386 -11.59514493 -6.93788175 0 0 Z " fill="#F89A35" transform="translate(129,204)"/>
<path d="M0 0 C2.63649829 1.10865305 3.49895674 2.28024148 4.8671875 4.78515625 C5.16015625 7.80078125 5.16015625 7.80078125 5.0546875 11.03515625 C5.01408203 12.65164062 5.01408203 12.65164062 4.97265625 14.30078125 C4.93785156 15.120625 4.90304687 15.94046875 4.8671875 16.78515625 C6.56875 17.09453125 6.56875 17.09453125 8.3046875 17.41015625 C15.16461509 19.16162713 20.89911761 22.85897407 24.9296875 28.72265625 C27.01304699 32.50597921 27.61764802 35.44916216 26.8671875 39.78515625 C25.3046875 42.22265625 25.3046875 42.22265625 22.8671875 43.78515625 C19.4296875 44.34765625 19.4296875 44.34765625 15.8671875 43.78515625 C13.1796875 41.53515625 13.1796875 41.53515625 10.8671875 38.78515625 C6.64375201 34.16577368 3.2851911 32.69639684 -2.9453125 32.41015625 C-8.00182246 32.50841429 -12.03773712 33.78410836 -16.1328125 36.78515625 C-18.58691608 40.46631162 -18.36569093 42.43809223 -18.1328125 46.78515625 C-17.8028125 47.77515625 -17.4728125 48.76515625 -17.1328125 49.78515625 C-14.88100803 50.93743453 -14.88100803 50.93743453 -12.1328125 51.78515625 C-11.19977295 52.10129883 -10.2667334 52.41744141 -9.30541992 52.74316406 C-8.29326416 53.07155273 -7.2811084 53.39994141 -6.23828125 53.73828125 C-5.11744141 54.11082031 -3.99660156 54.48335937 -2.84179688 54.8671875 C-0.50934279 55.64079124 1.82659804 56.4039667 4.16601562 57.15625 C12.71885619 60.028436 19.97972142 63.41512649 25.3046875 70.97265625 C25.77777344 71.62621094 26.25085938 72.27976562 26.73828125 72.953125 C29.88001148 78.05164223 29.39020225 84.01766477 28.8671875 89.78515625 C26.55245959 97.80874678 22.17238028 103.45094327 15.0390625 107.71484375 C11.72198343 109.34951941 8.48907324 110.07371441 4.8671875 110.78515625 C4.91939453 111.88923828 4.91939453 111.88923828 4.97265625 113.015625 C5.08959967 117.23115679 5.15960976 120.87133668 3.8671875 124.91015625 C1.27485451 127.34046843 -0.70215093 127.69461615 -4.1953125 127.92578125 C-6.97762054 127.72383954 -8.29269412 126.84608884 -10.1328125 124.78515625 C-11.18258214 121.63584732 -11.23412845 119.39701169 -11.1953125 116.09765625 C-11.18628906 115.10378906 -11.17726563 114.10992187 -11.16796875 113.0859375 C-11.15636719 112.32667969 -11.14476562 111.56742187 -11.1328125 110.78515625 C-11.9165625 110.74390625 -12.7003125 110.70265625 -13.5078125 110.66015625 C-20.63643256 108.93945486 -26.4461998 105.3246549 -30.7578125 99.34765625 C-33.10993354 95.378452 -34.045473 92.43972479 -33.1328125 87.78515625 C-31.5703125 85.34765625 -31.5703125 85.34765625 -29.1328125 83.78515625 C-25.6953125 83.22265625 -25.6953125 83.22265625 -22.1328125 83.78515625 C-19.5078125 85.97265625 -19.5078125 85.97265625 -17.1328125 88.78515625 C-12.84665892 93.39969298 -12.84665892 93.39969298 -6.93359375 94.98828125 C-0.92991519 95.10138038 3.47902186 94.52650368 8.8671875 91.78515625 C11.31510883 88.95474721 11.81935833 87.38302086 12.1171875 83.66015625 C11.97362729 80.71638416 11.97362729 80.71638416 10.8671875 77.78515625 C7.52965222 76.16549157 3.98404686 75.150374 0.4453125 74.05078125 C-0.58078125 73.72335937 -1.606875 73.3959375 -2.6640625 73.05859375 C-4.7912155 72.3822417 -6.92141504 71.71538946 -9.0546875 71.05859375 C-18.93940709 67.87077168 -27.953584 63.44989515 -33.09765625 54.015625 C-35.80971672 47.87911951 -36.43564995 40.91781267 -34.40625 34.48046875 C-30.83426936 26.78473811 -24.44260925 21.81195656 -17.1328125 17.78515625 C-13.5703125 16.91015625 -13.5703125 16.91015625 -11.1328125 16.78515625 C-11.19082031 15.97691406 -11.24882812 15.16867188 -11.30859375 14.3359375 C-11.67398151 5.68146742 -11.67398151 5.68146742 -9.1328125 1.47265625 C-5.63238855 -0.49633222 -3.87175766 -0.53481477 0 0 Z " fill="#F89A35" transform="translate(403.1328125,192.21484375)"/>
<path d="M0 0 C4.31261491 2.53036079 9.01775976 5.78942577 11.296875 10.34765625 C11.83722646 14.40029223 11.63886895 15.88495856 9.171875 19.22265625 C6.296875 21.34765625 6.296875 21.34765625 3.484375 22.03515625 C0.13186511 21.31206588 -0.93399832 20.53077817 -3.515625 18.41015625 C-7.75263354 14.99790891 -11.27537965 13.94740884 -16.703125 14.34765625 C-21.18794479 15.52400243 -23.12619593 16.64926843 -26.078125 20.22265625 C-28.73274589 25.47517536 -28.52968159 31.58066279 -28.703125 37.34765625 C-27.53394531 37.30125 -26.36476562 37.25484375 -25.16015625 37.20703125 C-23.6120048 37.16950031 -22.06382561 37.13310156 -20.515625 37.09765625 C-19.74669922 37.06414062 -18.97777344 37.030625 -18.18554688 36.99609375 C-14.2014123 36.92769659 -12.19676934 37.04462065 -8.71875 39.1796875 C-6.12402276 41.97052784 -5.62550597 43.54432398 -5.703125 47.34765625 C-7.47351949 50.09482012 -8.76604344 51.87911547 -11.703125 53.34765625 C-14.58682833 53.41960494 -17.44552164 53.44057333 -20.328125 53.41015625 C-21.12992188 53.40564453 -21.93171875 53.40113281 -22.7578125 53.39648438 C-24.73961506 53.38468793 -26.72137933 53.3667523 -28.703125 53.34765625 C-28.65091797 54.81525391 -28.65091797 54.81525391 -28.59765625 56.3125 C-28.57058594 57.62347656 -28.54351562 58.93445313 -28.515625 60.28515625 C-28.46341797 62.21681641 -28.46341797 62.21681641 -28.41015625 64.1875 C-28.51613212 68.88120532 -30.02828778 73.00289814 -31.703125 77.34765625 C-30.60846924 77.3319458 -29.51381348 77.31623535 -28.38598633 77.30004883 C-24.31395869 77.24563515 -20.24196303 77.21126469 -16.16967773 77.18286133 C-14.40920604 77.16780072 -12.6487717 77.14734799 -10.88842773 77.12133789 C-8.35390997 77.08483396 -5.81988948 77.06790271 -3.28515625 77.0546875 C-2.50163284 77.03920364 -1.71810944 77.02371979 -0.9108429 77.00776672 C3.65393089 77.0063697 6.7411169 77.37716934 10.296875 80.34765625 C11.46868414 84.30251208 11.7016883 86.41658567 10.046875 90.22265625 C8.296875 92.34765625 8.296875 92.34765625 5.296875 93.34765625 C3.58498729 93.45014036 1.8694467 93.49610027 0.15454102 93.50878906 C-1.41740273 93.52320038 -1.41740273 93.52320038 -3.02110291 93.53790283 C-4.15238113 93.54215271 -5.28365936 93.54640259 -6.44921875 93.55078125 C-7.61187759 93.55648132 -8.77453644 93.5621814 -9.97242737 93.5680542 C-12.43286224 93.57750475 -14.89330976 93.5840384 -17.35375977 93.58789062 C-21.12213097 93.59760856 -24.88995968 93.62863726 -28.65820312 93.66015625 C-31.04687176 93.66668505 -33.43554429 93.671936 -35.82421875 93.67578125 C-36.95347275 93.68812805 -38.08272675 93.70047485 -39.24620056 93.7131958 C-40.29731522 93.7101947 -41.34842987 93.7071936 -42.43139648 93.70410156 C-43.81680885 93.70957001 -43.81680885 93.70957001 -45.23020935 93.71514893 C-48.22086941 93.27071578 -49.56239049 92.46492885 -51.703125 90.34765625 C-53.28684093 84.18017712 -52.4695724 80.73760839 -49.328125 75.22265625 C-45.4853074 67.87496433 -44.61308403 61.6957408 -44.703125 53.34765625 C-45.88261719 53.16589844 -45.88261719 53.16589844 -47.0859375 52.98046875 C-49.703125 52.34765625 -49.703125 52.34765625 -51.578125 50.22265625 C-53.054282 46.45025504 -52.7807217 44.22700437 -51.703125 40.34765625 C-49.828125 38.41015625 -49.828125 38.41015625 -47.703125 37.34765625 C-46.713125 37.34765625 -45.723125 37.34765625 -44.703125 37.34765625 C-44.74953125 36.38085938 -44.7959375 35.4140625 -44.84375 34.41796875 C-45.15233985 23.28669194 -43.8457665 15.81561542 -36.640625 7.03515625 C-26.67788225 -3.28514007 -13.19143514 -6.01374249 0 0 Z " fill="#F89A35" transform="translate(276.703125,66.65234375)"/>
</svg>
